#!OML:ASF I:\salsa\salsa 7_09\Patient 1\Session 1\dancermale.ASF
:FULLY-SPECIFIED
:DEGREES
1911
root 0.613019 17.2639 -5.66022 -524.141 161.841 187.392
lowerback 3.96751 -5.91641 -2.92746
upperback -4.2628 -8.24158 -1.68886
thorax -6.50275 -3.9765 0.632965
lowerneck -7.20536 7.11929 2.85243
upperneck 25.4978 12.2611 -10.1622
head 10.1241 4.93193 -2.67271
rclavicle -4.11484e-014 -1.78906e-014
rhumerus -43.9431 -5.8436 -72.4108
rradius 104.271
rwrist -21.4446
rhand -51.8408 -22.4762
rfingers 7.12502
rthumb -24.3549 -410.949
lclavicle -4.11484e-014 -1.78906e-014
lhumerus -11.1275 2.66286 107.549
lradius 44.6938
lwrist 53.8748
lhand -2.60186 54.2475
lfingers 7.12502
lthumb 23.096 -277.117
rfemur -19.5654 3.61398 -9.94799
rtibia 10.5693
rfoot -9.00845 -39.8734
rtoes 20.0758
lfemur -19.9519 5.58894 -35.2866
ltibia 20.266
lfoot -17.801 20.0471
ltoes 7.39725
1912
root 0.54598 17.2764 -5.68513 -524.352 162.079 187.433
lowerback 4.0732 -5.66265 -3.23324
upperback -4.12764 -7.94182 -2.05151
thorax -6.43899 -3.82431 0.40282
lowerneck -7.04033 7.56084 3.30145
upperneck 25.1559 12.8022 -10.2456
head 10.0472 5.23575 -2.71131
rclavicle 5.32246e-014 5.4467e-014
rhumerus -45.0983 -4.62548 -74.2694
rradius 105.252
rwrist -20.8878
rhand -52.1727 -20.9332
rfingers 7.12502
rthumb -24.6731 -409.363
lclavicle 5.32246e-014 5.4467e-014
lhumerus -11.2576 4.72891 106.477
lradius 43.7591
lwrist 52.9378
lhand -2.09173 53.5912
lfingers 7.12502
lthumb 23.5854 -277.835
rfemur -19.6567 3.63285 -9.73343
rtibia 10.5224
rfoot -9.05047 -39.8493
rtoes 20.3908
lfemur -19.8552 5.45494 -35.0922
ltibia 20.1921
lfoot -17.7002 20.3128
ltoes 7.41326
1913
root 0.475657 17.2872 -5.70477 -524.525 162.092 187.503
lowerback 4.15079 -5.44626 -3.47349
upperback -3.99998 -7.6853 -2.3967
thorax -6.37174 -3.69642 0.156309
lowerneck -6.83175 8.03576 3.67652
upperneck 24.8297 13.3937 -10.2779
head 9.96688 5.56236 -2.71525
rclavicle 1.05356e-014 -4.21423e-014
rhumerus -46.2848 -3.56624 -76.1129
rradius 106.245
rwrist -20.2267
rhand -52.1715 -19.041
rfingers 7.12502
rthumb -24.6718 -407.47
lclavicle 1.05356e-014 -4.21423e-014
lhumerus -11.4717 6.75012 105.293
lradius 42.9562
lwrist 52.1679
lhand -1.38014 52.819
lfingers 7.12502
lthumb 24.2678 -278.697
rfemur -19.5956 3.58931 -9.50343
rtibia 10.4238
rfoot -9.04874 -39.823
rtoes 21.1086
lfemur -19.745 5.85924 -34.9142
ltibia 20.0486
lfoot -17.5051 19.9335
ltoes 6.79703
1914
root 0.410306 17.2941 -5.71567 -524.641 161.983 187.512
lowerback 4.03589 -5.21853 -3.45036
upperback -3.85688 -7.3859 -2.78898
thorax -6.21643 -3.56358 -0.304624
lowerneck -6.50134 8.51785 4.08964
upperneck 24.3753 13.9833 -10.3427
head 9.82553 5.89851 -2.742
rclavicle -9.96408e-014 -5.00937e-014
rhumerus -47.5158 -2.53453 -78.2337
rradius 107.215
rwrist -18.4729
rhand -52.4208 -19.6327
rfingers 7.12502
rthumb -24.9108 -408.029
lclavicle -9.96408e-014 -5.00937e-014
lhumerus -11.8318 8.54519 103.939
lradius 42.3674
lwrist 51.8167
lhand -0.798705 52.1924
lfingers 7.12502
lthumb 24.8251 -279.399
rfemur -19.577 3.36066 -9.21471
rtibia 10.4769
rfoot -8.87778 -39.7099
rtoes 21.075
lfemur -19.6867 6.27688 -34.6693
ltibia 19.91
lfoot -17.3704 19.34
ltoes 7.62476
1915
root 0.345991 17.3014 -5.72103 -524.785 161.833 187.514
lowerback 3.86109 -4.93607 -3.30425
upperback -3.6406 -6.99981 -3.24486
thorax -5.96819 -3.39639 -0.913388
lowerneck -6.23749 8.9758 4.67885
upperneck 23.8923 14.5642 -10.6094
head 9.72112 6.22447 -2.86424
rclavicle -7.0171e-014 -4.77083e-015
rhumerus -48.8172 -1.53685 -80.6018
rradius 108.187
rwrist -15.6413
rhand -53.0407 -22.5597
rfingers 7.12502
rthumb -25.5047 -410.873
lclavicle -7.0171e-014 -4.77083e-015
lhumerus -12.2581 10.0577 102.473
lradius 42.0329
lwrist 51.684
lhand -0.474935 51.6108
lfingers 7.12502
lthumb 25.1354 -280.024
rfemur -19.5754 3.05394 -8.92048
rtibia 10.6911
rfoot -8.49099 -39.4971
rtoes 20.1448
lfemur -19.6454 6.42716 -34.3827
ltibia 19.8935
lfoot -17.3085 18.8602
ltoes 10.3743
1916
root 0.275189 17.3091 -5.72471 -524.899 161.507 187.549
lowerback 3.76978 -4.67448 -3.2304
upperback -3.46358 -6.64739 -3.61219
thorax -5.78296 -3.23739 -1.37831
lowerneck -5.90438 9.43011 5.07145
upperneck 23.3763 15.1611 -10.8514
head 9.58241 6.54815 -2.94758
rclavicle 6.13251e-014 -3.26007e-014
rhumerus -50.0782 -0.754871 -82.5857
rradius 109.134
rwrist -14.3125
rhand -53.6162 -21.9704
rfingers 7.12502
rthumb -26.0559 -410.203
lclavicle 6.13251e-014 -3.26007e-014
lhumerus -12.7796 11.407 100.931
lradius 41.8454
lwrist 51.5255
lhand 0.427869 50.8912
lfingers 7.12502
lthumb 26.0001 -280.868
rfemur -19.5359 2.63776 -8.61985
rtibia 11.0128
rfoot -8.41056 -39.1598
rtoes 19.7217
lfemur -19.7003 6.1564 -34.0853
ltibia 20.0956
lfoot -17.2436 18.7059
ltoes 12.0894
1917
root 0.193799 17.3154 -5.72514 -524.898 161.089 187.579
lowerback 3.70703 -4.38634 -3.27741
upperback -3.37111 -6.26795 -3.89684
thorax -5.67518 -3.05545 -1.68782
lowerneck -5.65339 9.80988 5.42931
upperneck 22.9759 15.6543 -11.0163
head 9.4852 6.8208 -3.00804
rclavicle 4.78077e-014 1.59028e-015
rhumerus -51.3466 -0.00777209 -84.5506
rradius 110.093
rwrist -13.0428
rhand -53.8852 -21.9374
rfingers 7.12502
rthumb -26.3134 -410.132
lclavicle 4.78077e-014 1.59028e-015
lhumerus -13.3856 12.3503 99.3123
lradius 41.7448
lwrist 51.2002
lhand 1.52587 50.1901
lfingers 7.12502
lthumb 27.0511 -281.727
rfemur -19.6362 2.24795 -8.27206
rtibia 11.4659
rfoot -8.73367 -38.941
rtoes 19.6532
lfemur -19.8756 5.63563 -33.7628
ltibia 20.3611
lfoot -17.1852 18.8601
ltoes 10.5773
1918
root 0.107337 17.3241 -5.72128 -524.849 160.542 187.601
lowerback 3.6863 -4.02899 -3.36364
upperback -3.29846 -5.79897 -4.14283
thorax -5.59941 -2.82548 -1.93889
lowerneck -5.50588 10.1349 5.90603
upperneck 22.7384 16.1052 -11.2825
head 9.48388 7.06393 -3.1201
rclavicle -1.48095e-014 -6.2816e-014
rhumerus -52.6379 0.57144 -86.4483
rradius 111.059
rwrist -11.8721
rhand -54.003 -21.8944
rfingers 7.12502
rthumb -26.4262 -410.072
lclavicle -1.48095e-014 -6.2816e-014
lhumerus -14.0403 12.9883 97.7842
lradius 41.7785
lwrist 50.6928
lhand 2.28038 49.3265
lfingers 7.12502
lthumb 27.7727 -282.705
rfemur -19.7578 1.92411 -7.88921
rtibia 11.9676
rfoot -9.47247 -38.9337
rtoes 19.8537
lfemur -20.01 5.02585 -33.3859
ltibia 20.4997
lfoot -17.0894 19.013
ltoes 7.65554
1919
root 0.0232364 17.334 -5.71309 -524.799 159.838 187.698
lowerback 3.65485 -3.63715 -3.44819
upperback -3.19569 -5.27917 -4.36814
thorax -5.47998 -2.57019 -2.1749
lowerneck -5.29263 10.3822 6.27308
upperneck 22.4887 16.4745 -11.5932
head 9.45573 7.26084 -3.24384
rclavicle -1.54058e-014 -4.77083e-015
rhumerus -53.9753 1.02122 -88.2346
rradius 111.868
rwrist -10.7408
rhand -54.013 -20.2452
rfingers 7.12502
rthumb -26.4358 -408.422
lclavicle -1.54058e-014 -4.77083e-015
lhumerus -14.7507 13.4173 96.3383
lradius 41.9754
lwrist 50.1834
lhand 2.97859 48.723
lfingers 7.12502
lthumb 28.4401 -283.418
rfemur -19.7666 1.4169 -7.56464
rtibia 12.5214
rfoot -10.2703 -38.7949
rtoes 20.7214
lfemur -20.0689 4.18348 -33.0462
ltibia 20.618
lfoot -16.9822 19.147
ltoes 6.63156
